
<svg xmlns="http://www.w3.org/2000/svg" viewBox="0 0 55 55">
	<style type="text/css">
		.st0{fill:url(#SVGID_1_);filter:url(#dropshadow);}
		.st1{fill:none;stroke:#555;stroke-width:0.5;stroke-miterlimit:10;}
		.st2{fill:url(#SVGID_2_);stroke:#888;stroke-width:2;stroke-miterlimit:10;}
		.st3{fill:none;stroke:url(#SVGID_3_);stroke-miterlimit:10;}
		.st4{fill:#777;}
	</style>
	<filter filterUnits="objectBoundingBox" id="dropshadow">
		<feOffset dx="0" dy="2" in="SourceAlpha" result="defappShadowOffsetOuter1"></feOffset>
		<feGaussianBlur stdDeviation="1.5" in="defappShadowOffsetOuter1" result="defappShadowBlurOuter1"></feGaussianBlur>
		<feColorMatrix values="0 0 0 0 0   0 0 0 0 0   0 0 0 0 0  0 0 0 0.5 0" type="matrix" in="defappShadowBlurOuter1" result="defappShadowMatrixOuter1"></feColorMatrix>
		<feMerge>
			<feMergeNode in="defappShadowMatrixOuter1"/>
			<feMergeNode in="SourceGraphic"/>
		</feMerge>
	</filter>
	<filter filterUnits="objectBoundingBox" id="ds2">
		<feOffset dx="0" dy=".5" in="SourceAlpha" result="defappShadowOffsetOuter1"></feOffset>
		<feGaussianBlur stdDeviation=".5" in="defappShadowOffsetOuter1" result="defappShadowBlurOuter1"></feGaussianBlur>
		<feColorMatrix values="0 0 0 0 0   0 0 0 0 0   0 0 0 0 0  0 0 0 0.5 0" type="matrix" in="defappShadowBlurOuter1" result="defappShadowMatrixOuter1"></feColorMatrix>
		<feMerge>
			<feMergeNode in="defappShadowMatrixOuter1"/>
			<feMergeNode in="SourceGraphic"/>
		</feMerge>
	</filter>
	<linearGradient id="SVGID_1_" gradientUnits="userSpaceOnUse" x1="27.5" y1="0.8045" x2="27.5" y2="50.1955">
		<stop  offset="0" style="stop-color:#CBCBCB"/>
		<stop  offset="0.1044" style="stop-color:#E0E0E1"/>
		<stop  offset="1" style="stop-color:#C7C7C7"/>
	</linearGradient>
	<linearGradient id="SVGID_2_" gradientUnits="userSpaceOnUse" x1="27.5" y1="7.2951" x2="27.5" y2="43.7049">
		<stop  offset="0" style="stop-color:#DFDFDF"/>
		<stop  offset="0.1044" style="stop-color:#E0E0E1"/>
		<stop  offset="0.8373" style="stop-color:#F7F7F7"/>
	</linearGradient>
	<linearGradient id="SVGID_3_" gradientUnits="userSpaceOnUse" x1="27.5" y1="8.2724" x2="27.5" y2="42.7276">
		<stop  offset="0" style="stop-color:#FFFFFF"/>
		<stop  offset="1" style="stop-color:#E0E0E1;stop-opacity:0"/>
	</linearGradient>
	<path class="st0" d="M44.63,50.2H10.37c-4.18,0-7.56-3.39-7.56-7.56V8.37c0-4.18,3.39-7.56,7.56-7.56h34.26
		c4.18,0,7.56,3.39,7.56,7.56v34.26C52.2,46.81,48.81,50.2,44.63,50.2z"/>
	<path class="st1" d="M44.72,50.2H10.28c-4.13,0-7.48-3.35-7.48-7.48V8.28c0-4.13,3.35-7.48,7.48-7.48h34.44
		c4.13,0,7.48,3.35,7.48,7.48v34.44C52.2,46.85,48.85,50.2,44.72,50.2z"/>
	<path class="st2" d="M42.12,43.7H12.88c-1.98,0-3.58-1.6-3.58-3.58V10.88c0-1.98,1.6-3.58,3.58-3.58h29.25
		c1.98,0,3.58,1.6,3.58,3.58v29.25C45.7,42.1,44.1,43.7,42.12,43.7z"/>
	<path class="st3" d="M41.88,42.23H13.12c-1.3,0-2.34-1.05-2.34-2.34V11.12c0-1.3,1.05-2.34,2.34-2.34h28.77
		c1.3,0,2.34,1.05,2.34,2.34v28.77C44.23,41.18,43.18,42.23,41.88,42.23z"/>
	<path class="st4" d="M42.25,18.17c-0.39-0.39-0.97-0.58-1.55-0.58h-1.07v-2.71h1.07c0.58,0,1.07-0.19,1.55-0.68
		c0.87-0.87,0.87-2.23,0-3.1c-0.39-0.39-0.97-0.58-1.55-0.58c-0.58,0-1.07,0.19-1.55,0.68c-0.39,0.39-0.58,0.97-0.58,1.65v0.97h-2.81
		v-0.97c0-0.68-0.19-1.26-0.58-1.65c-0.48-0.48-0.97-0.68-1.55-0.68c-0.58,0-1.16,0.19-1.55,0.68c-0.39,0.39-0.68,0.87-0.68,1.55
		c0,0.68,0.29,1.07,0.68,1.55c0.39,0.39,0.97,0.58,1.55,0.58h1.07v2.71h-1.07c-0.58,0-1.07,0.19-1.55,0.68
		c-0.39,0.39-0.68,0.97-0.68,1.55s0.19,1.07,0.68,1.55c0.39,0.39,0.97,0.58,1.55,0.58s1.07-0.19,1.55-0.68
		c0.39-0.39,0.58-0.97,0.58-1.65v-0.97h2.71v0.97c0,0.68,0.19,1.26,0.68,1.65c0.39,0.39,0.97,0.68,1.55,0.68
		c0.58,0,1.07-0.19,1.55-0.68c0.39-0.39,0.68-0.97,0.68-1.55C42.93,19.23,42.74,18.65,42.25,18.17L42.25,18.17z M40.03,11.96
		c0.19-0.19,0.48-0.29,0.68-0.29c0.19,0,0.58,0.1,0.68,0.29c0.39,0.39,0.39,1.07,0,1.45c-0.19,0.19-0.48,0.29-0.68,0.29h-1.07v-0.97
		C39.73,12.45,39.73,12.16,40.03,11.96L40.03,11.96z M33.63,13.71c-0.29,0-0.48-0.1-0.68-0.39c-0.19-0.1-0.39-0.39-0.39-0.58
		c0-0.19,0.1-0.58,0.29-0.68c0.29-0.29,0.48-0.39,0.78-0.39c0.29,0,0.58,0.1,0.68,0.29c0.19,0.19,0.29,0.48,0.29,0.87v0.97
		L33.63,13.71z M34.4,20.49c-0.19,0.19-0.48,0.29-0.68,0.29c-0.29,0-0.58-0.1-0.68-0.29c-0.19-0.19-0.29-0.48-0.29-0.68
		s0.1-0.58,0.29-0.68c0.1-0.29,0.29-0.39,0.58-0.39h1.07v0.97C34.69,20.01,34.6,20.3,34.4,20.49L34.4,20.49z M38.57,17.59h-2.81
		v-2.71h2.71v2.71H38.57z M41.48,20.49c-0.19,0.19-0.48,0.29-0.68,0.29c-0.19,0-0.58-0.1-0.68-0.29c-0.19-0.19-0.29-0.48-0.29-0.87
		v-0.97h1.07c0.29,0,0.58,0.1,0.68,0.29c0.19,0.19,0.29,0.48,0.29,0.68C41.77,20.01,41.67,20.3,41.48,20.49L41.48,20.49z"/>
	<g>
		<path class="st4" d="M16.58,40.16c-0.28,0-0.53-0.06-0.77-0.18c-0.24-0.12-0.43-0.3-0.57-0.53c-0.14-0.23-0.22-0.51-0.22-0.83
			c0-0.33,0.07-0.6,0.22-0.83c0.14-0.23,0.33-0.4,0.57-0.53c0.24-0.12,0.49-0.18,0.77-0.18c0.23,0,0.42,0.03,0.57,0.09
			c0.15,0.06,0.28,0.12,0.38,0.19c0.08,0.05,0.12,0.12,0.12,0.2c0,0.05-0.02,0.11-0.06,0.16c-0.04,0.05-0.1,0.08-0.16,0.08
			c-0.04,0-0.08-0.01-0.13-0.04c-0.1-0.05-0.2-0.1-0.3-0.13c-0.1-0.04-0.22-0.05-0.37-0.05c-0.34,0-0.6,0.1-0.79,0.29
			c-0.19,0.19-0.28,0.45-0.28,0.76c0,0.31,0.09,0.56,0.28,0.76c0.19,0.19,0.45,0.29,0.79,0.29c0.15,0,0.27-0.02,0.37-0.05
			c0.1-0.04,0.2-0.08,0.3-0.13c0.04-0.02,0.09-0.04,0.13-0.04c0.06,0,0.11,0.03,0.16,0.08c0.04,0.05,0.06,0.1,0.06,0.16
			c0,0.09-0.04,0.15-0.12,0.2c-0.1,0.06-0.22,0.12-0.38,0.19C17,40.13,16.81,40.16,16.58,40.16z"/>
		<path class="st4" d="M19.59,40.16c-0.3,0-0.56-0.07-0.79-0.2s-0.4-0.31-0.52-0.54s-0.18-0.5-0.18-0.81c0-0.31,0.06-0.57,0.18-0.81
			c0.12-0.23,0.3-0.41,0.52-0.54c0.23-0.13,0.49-0.19,0.79-0.19c0.3,0,0.56,0.06,0.78,0.19c0.22,0.13,0.4,0.31,0.52,0.54
			c0.12,0.23,0.19,0.5,0.19,0.81c0,0.31-0.06,0.58-0.19,0.81s-0.3,0.41-0.52,0.54C20.15,40.09,19.89,40.16,19.59,40.16z M19.59,39.67
			c0.15,0,0.29-0.04,0.44-0.1c0.15-0.07,0.27-0.18,0.37-0.34c0.1-0.16,0.15-0.36,0.15-0.62s-0.05-0.46-0.15-0.62
			c-0.1-0.16-0.22-0.27-0.37-0.33c-0.15-0.07-0.29-0.1-0.44-0.1s-0.3,0.03-0.44,0.1c-0.15,0.07-0.27,0.18-0.37,0.33
			c-0.1,0.16-0.15,0.36-0.15,0.62s0.05,0.46,0.15,0.62c0.1,0.16,0.22,0.27,0.37,0.34S19.44,39.67,19.59,39.67z"/>
		<path class="st4" d="M22.08,40.13c-0.07,0-0.14-0.03-0.19-0.08c-0.05-0.05-0.08-0.11-0.08-0.19v-2.5c0-0.07,0.03-0.14,0.08-0.19
			c0.05-0.05,0.11-0.08,0.19-0.08s0.14,0.03,0.19,0.08c0.05,0.05,0.08,0.12,0.08,0.19v0.24c0.05-0.08,0.12-0.16,0.21-0.24
			c0.08-0.08,0.19-0.15,0.32-0.21c0.13-0.06,0.28-0.09,0.47-0.09c0.23,0,0.42,0.06,0.57,0.19c0.15,0.12,0.25,0.26,0.32,0.41
			c0.05-0.07,0.11-0.16,0.2-0.25c0.08-0.09,0.2-0.17,0.34-0.24c0.14-0.07,0.32-0.1,0.53-0.1c0.23,0,0.42,0.06,0.56,0.17
			s0.25,0.26,0.31,0.43c0.07,0.17,0.1,0.34,0.1,0.52v1.68c0,0.07-0.03,0.14-0.08,0.19c-0.05,0.05-0.12,0.08-0.19,0.08
			c-0.07,0-0.14-0.03-0.19-0.08c-0.05-0.05-0.08-0.11-0.08-0.19V38.3c0-0.24-0.04-0.43-0.13-0.55c-0.09-0.12-0.24-0.18-0.46-0.18
			c-0.15,0-0.27,0.03-0.38,0.08c-0.1,0.06-0.19,0.13-0.27,0.21s-0.14,0.17-0.19,0.26v1.75c0,0.07-0.03,0.14-0.08,0.19
			c-0.05,0.05-0.12,0.08-0.19,0.08s-0.14-0.03-0.19-0.08c-0.05-0.05-0.08-0.11-0.08-0.19V38.3c0-0.24-0.04-0.43-0.13-0.55
			c-0.09-0.12-0.24-0.18-0.46-0.18c-0.15,0-0.27,0.03-0.38,0.08c-0.1,0.06-0.19,0.13-0.27,0.21s-0.14,0.17-0.19,0.26v1.75
			c0,0.07-0.03,0.14-0.08,0.19C22.21,40.1,22.15,40.13,22.08,40.13z"/>
		<path class="st4" d="M27.42,40.13c-0.07,0-0.14-0.03-0.19-0.08c-0.05-0.05-0.08-0.11-0.08-0.19v-2.5c0-0.07,0.03-0.14,0.08-0.19
			c0.05-0.05,0.11-0.08,0.19-0.08s0.14,0.03,0.19,0.08c0.05,0.05,0.08,0.12,0.08,0.19v0.24c0.05-0.08,0.12-0.16,0.21-0.24
			c0.08-0.08,0.19-0.15,0.32-0.21c0.13-0.06,0.28-0.09,0.46-0.09c0.23,0,0.42,0.06,0.57,0.19c0.15,0.12,0.25,0.26,0.32,0.41
			c0.05-0.07,0.11-0.16,0.2-0.25c0.08-0.09,0.2-0.17,0.34-0.24c0.14-0.07,0.32-0.1,0.53-0.1c0.23,0,0.42,0.06,0.56,0.17
			s0.25,0.26,0.31,0.43c0.07,0.17,0.1,0.34,0.1,0.52v1.68c0,0.07-0.03,0.14-0.08,0.19c-0.05,0.05-0.12,0.08-0.19,0.08
			c-0.07,0-0.14-0.03-0.19-0.08c-0.05-0.05-0.08-0.11-0.08-0.19V38.3c0-0.24-0.04-0.43-0.13-0.55c-0.09-0.12-0.24-0.18-0.46-0.18
			c-0.15,0-0.27,0.03-0.38,0.08c-0.1,0.06-0.19,0.13-0.27,0.21c-0.07,0.08-0.14,0.17-0.19,0.26v1.75c0,0.07-0.03,0.14-0.08,0.19
			c-0.05,0.05-0.12,0.08-0.19,0.08c-0.07,0-0.14-0.03-0.19-0.08c-0.05-0.05-0.08-0.11-0.08-0.19V38.3c0-0.24-0.04-0.43-0.13-0.55
			c-0.09-0.12-0.24-0.18-0.46-0.18c-0.15,0-0.27,0.03-0.38,0.08c-0.1,0.06-0.19,0.13-0.27,0.21s-0.14,0.17-0.19,0.26v1.75
			c0,0.07-0.03,0.14-0.08,0.19C27.55,40.1,27.49,40.13,27.42,40.13z"/>
		<path class="st4" d="M33.25,40.16c-0.17,0-0.32-0.04-0.47-0.11c-0.15-0.07-0.26-0.17-0.35-0.3s-0.13-0.29-0.13-0.47
			c0-0.28,0.11-0.5,0.33-0.68c0.22-0.18,0.56-0.26,1.01-0.26h0.7V38.3c0-0.26-0.06-0.45-0.19-0.56s-0.32-0.17-0.59-0.17
			c-0.16,0-0.3,0.01-0.43,0.04s-0.24,0.06-0.35,0.1c-0.03,0.01-0.06,0.01-0.08,0.01c-0.06,0-0.11-0.02-0.15-0.06
			c-0.04-0.04-0.06-0.09-0.06-0.16c0-0.11,0.05-0.18,0.15-0.22c0.14-0.06,0.29-0.11,0.45-0.15c0.17-0.04,0.35-0.06,0.56-0.06
			c0.28,0,0.51,0.06,0.69,0.17c0.18,0.11,0.31,0.26,0.4,0.43c0.09,0.17,0.13,0.36,0.13,0.55v1.65c0,0.07-0.03,0.14-0.08,0.19
			c-0.05,0.05-0.12,0.08-0.19,0.08c-0.07,0-0.14-0.03-0.19-0.08c-0.05-0.05-0.08-0.11-0.08-0.19v-0.15c-0.1,0.11-0.24,0.21-0.42,0.3
			C33.75,40.11,33.53,40.16,33.25,40.16z M33.45,39.69c0.18,0,0.35-0.04,0.51-0.13c0.16-0.09,0.29-0.19,0.38-0.3v-0.49h-0.63
			c-0.27,0-0.49,0.04-0.64,0.1c-0.16,0.07-0.24,0.19-0.24,0.36c0,0.12,0.04,0.23,0.13,0.33S33.21,39.69,33.45,39.69z"/>
		<path class="st4" d="M36.03,40.13c-0.07,0-0.14-0.03-0.19-0.08c-0.05-0.05-0.08-0.11-0.08-0.19v-2.5c0-0.08,0.02-0.14,0.08-0.19
			c0.05-0.05,0.11-0.08,0.19-0.08c0.07,0,0.14,0.03,0.19,0.08c0.05,0.05,0.08,0.11,0.08,0.19v0.24c0.12-0.14,0.27-0.26,0.44-0.37
			s0.38-0.17,0.64-0.17c0.22,0,0.41,0.05,0.56,0.15s0.27,0.24,0.35,0.41c0.08,0.17,0.12,0.36,0.12,0.57v1.65
			c0,0.07-0.03,0.14-0.08,0.19c-0.05,0.05-0.12,0.08-0.19,0.08c-0.07,0-0.14-0.03-0.19-0.08c-0.05-0.05-0.08-0.11-0.08-0.19v-1.59
			c0-0.22-0.05-0.39-0.15-0.52c-0.1-0.13-0.26-0.19-0.49-0.19c-0.21,0-0.39,0.06-0.55,0.17c-0.15,0.11-0.29,0.24-0.41,0.39v1.75
			c0,0.07-0.03,0.14-0.08,0.19C36.16,40.1,36.1,40.13,36.03,40.13z"/>
		<path class="st4" d="M40.53,40.16c-0.23,0-0.46-0.06-0.67-0.18c-0.21-0.12-0.39-0.29-0.53-0.52s-0.21-0.51-0.21-0.84
			c0-0.33,0.07-0.61,0.21-0.84c0.14-0.23,0.31-0.4,0.53-0.52c0.22-0.12,0.44-0.18,0.67-0.18c0.21,0,0.39,0.04,0.55,0.12
			c0.16,0.08,0.31,0.19,0.44,0.33v-1.43c0-0.08,0.03-0.14,0.08-0.19c0.05-0.05,0.12-0.08,0.19-0.08c0.07,0,0.14,0.03,0.19,0.08
			c0.05,0.05,0.08,0.11,0.08,0.19v3.78c0,0.07-0.03,0.14-0.08,0.19c-0.05,0.05-0.11,0.08-0.19,0.08c-0.07,0-0.14-0.03-0.19-0.08
			c-0.05-0.05-0.08-0.11-0.08-0.19v-0.15c-0.13,0.14-0.28,0.25-0.44,0.33C40.92,40.12,40.74,40.16,40.53,40.16z M40.61,39.66
			c0.19,0,0.36-0.04,0.52-0.12c0.15-0.08,0.29-0.19,0.4-0.31v-1.22c-0.11-0.12-0.25-0.23-0.4-0.31c-0.16-0.08-0.33-0.12-0.52-0.12
			c-0.28,0-0.5,0.09-0.68,0.26c-0.18,0.18-0.27,0.44-0.27,0.78c0,0.34,0.09,0.6,0.27,0.78C40.11,39.57,40.33,39.66,40.61,39.66z"/>
	</g>
</svg>
