<svg xmlns="http://www.w3.org/2000/svg" width="0" height="0">

	<svg id="icon-darker" viewBox="0 0 14 14">
		<style type="text/css">
			.st0{fill:none;stroke:#777;}
			.st1{fill:none;stroke:#777;stroke-width:1.15;stroke-linecap:round;}
		</style>
		<circle class="st0" cx="7" cy="7" r="2.4"/>
		<line class="st1" x1="7" y1="2" x2="7" y2="3"/>
		<line class="st1" x1="7" y1="11" x2="7" y2="12"/>
		<line class="st1" x1="11.5" y1="7" x2="11" y2="7"/>
		<line class="st1" x1="3" y1="7" x2="2" y2="7"/>
		<line class="st1" x1="10.5" y1="3.6" x2="9.8" y2="4.3"/>
		<line class="st1" x1="4.1" y1="10" x2="3.4" y2="10.7"/>
		<line class="st1" x1="10.1" y1="10.4" x2="9.8" y2="10"/>
		<line class="st1" x1="4.1" y1="4.3" x2="3.4" y2="3.6"/>
	</svg>

	<svg id="icon-brighter" viewBox="0 0 14 14">
		<style type="text/css">
			.st0{fill:none;stroke:#777;}
			.st1{fill:none;stroke:#777;stroke-width:1.15;stroke-linecap:round;}
		</style>
		<circle class="st0" cx="7" cy="7" r="2.4"/>
		<line class="st1" x1="7" y1="1" x2="7" y2="3"/>
		<line class="st1" x1="7" y1="11" x2="7" y2="13"/>
		<line class="st1" x1="13" y1="7" x2="11" y2="7"/>
		<line class="st1" x1="3" y1="7" x2="1" y2="7"/>
		<line class="st1" x1="11.2" y1="2.8" x2="9.8" y2="4.2"/>
		<line class="st1" x1="4.2" y1="9.8" x2="2.8" y2="11.2"/>
		<line class="st1" x1="11.2" y1="11.2" x2="9.8" y2="9.8"/>
		<line class="st1" x1="4.2" y1="4.2" x2="2.8" y2="2.8"/>
	</svg>

	<svg id="icon-mission-control" viewBox="0 0 14 14">
		<style type="text/css">
			.st0{fill:none;stroke:#949494;stroke-linejoin:round;}
		</style>
		<rect x="0.5" y="2.5" class="st0" width="6" height="4"/>
		<rect x="2.5" y="8.5" class="st0" width="5" height="3"/>
		<rect x="9.5" y="3.5" class="st0" width="4" height="5"/>
	</svg>

	<svg id="icon-app-list" viewBox="0 0 14 14">
		<style type="text/css">
			.st0{fill:none;stroke:#949494;stroke-linejoin:round;}
		</style>
		<rect x="0.5" y="2.5" class="st0" width="3" height="3"/>
		<rect x="5.5" y="2.5" class="st0" width="3" height="3"/>
		<rect x="10.5" y="2.5" class="st0" width="3" height="3"/>
		<rect x="0.5" y="7.5" class="st0" width="3" height="3"/>
		<rect x="5.5" y="7.5" class="st0" width="3" height="3"/>
		<rect x="10.5" y="7.5" class="st0" width="3" height="3"/>
	</svg>

	<svg id="icon-play-prev" viewBox="0 0 14 14">
		<style type="text/css">
			.st0{fill:none;stroke:#888;stroke-linejoin:round;}
		</style>
		<polygon class="st0" points="6.5,3.5 1.5,7 6.5,10.5 "/>
		<polygon class="st0" points="12.5,3.5 7.5,7 12.5,10.5 "/>
	</svg>

	<svg id="icon-play-pause" viewBox="0 0 14 14">
		<style type="text/css">
			.st0{fill:none;stroke:#888;stroke-linejoin:round;}
		</style>
		<polygon class="st0" points="1.5,10.5 6.5,7 1.5,3.5 "/>
		<line class="st0" x1="8.5" y1="3.5" x2="8.5" y2="10.5"/>
		<line class="st0" x1="11.5" y1="3.5" x2="11.5" y2="10.5"/>
	</svg>

	<svg id="icon-play-next" viewBox="0 0 14 14">
		<style type="text/css">
			.st0{fill:none;stroke:#888;stroke-linejoin:round;}
		</style>
		<polygon class="st0" points="7.5,10.5 12.5,7.1 7.5,3.5 "/>
		<polygon class="st0" points="1.5,10.5 6.5,7.1 1.5,3.5 "/>
	</svg>

	<svg id="icon-volume-mute" viewBox="0 0 14 14">
		<style type="text/css">
			.st0{fill:none;stroke:#888;}
		</style>
		<path class="st0" d="M6.5,3.2v7.5c0,0.2-0.2,0.4-0.4,0.4c-0.1,0-0.2,0-0.3-0.1l-3-2.5H1c-0.2,0-0.4-0.2-0.4-0.4V5.9
			c0-0.2,0.2-0.4,0.4-0.4h1.8l3-2.6c0.1-0.1,0.2-0.1,0.3-0.1C6.3,2.8,6.5,3,6.5,3.2L6.5,3.2z"/>
	</svg>

	<svg id="icon-volume-less" viewBox="0 0 14 14">
		<style type="text/css">
			.st0{fill:#888;}
			.st1{fill:none;stroke:#888;}
		</style>
		<path class="st0" d="M9.8,7c0,0.8-0.5,1.6-1.3,1.9C8.4,9,8.4,9,8.3,9C8,9,7.8,8.7,7.8,8.4c0-0.6,1-0.5,1-1.4s-1-0.8-1-1.4
			C7.8,5.3,8,5,8.3,5c0.1,0,0.1,0,0.2,0C9.3,5.4,9.8,6.2,9.8,7L9.8,7z"/>
		<path class="st1" d="M6.5,3.2v7.5c0,0.2-0.2,0.4-0.4,0.4c-0.1,0-0.2,0-0.3-0.1l-3-2.5H1c-0.2,0-0.4-0.2-0.4-0.4V5.9
			c0-0.2,0.2-0.4,0.4-0.4h1.8l3-2.6c0.1-0.1,0.2-0.1,0.3-0.1C6.3,2.8,6.5,3,6.5,3.2L6.5,3.2z"/>
	</svg>

	<svg id="icon-volume-more" viewBox="0 0 14 14">
		<style type="text/css">
			.st0{fill:#888;}
			.st1{fill:none;stroke:#888;}
		</style>
		<path class="st0" d="M9.8,7c0,0.8-0.5,1.6-1.3,1.9C8.4,9,8.4,9,8.3,9C8,9,7.8,8.7,7.8,8.4c0-0.6,1-0.5,1-1.4s-1-0.8-1-1.4
			C7.8,5.3,8,5,8.3,5c0.1,0,0.1,0,0.2,0C9.3,5.4,9.8,6.2,9.8,7L9.8,7z M11.9,7c0,1.7-1,3.2-2.6,3.9c-0.1,0-0.1,0-0.2,0
			c-0.3,0-0.5-0.2-0.5-0.5c0-0.2,0.1-0.4,0.3-0.5c0.2-0.1,0.4-0.2,0.6-0.4C10.4,9,10.8,8,10.8,7s-0.5-2-1.3-2.5
			C9.3,4.3,9.1,4.2,8.9,4.1C8.7,4,8.6,3.8,8.6,3.6c0-0.3,0.2-0.5,0.5-0.5c0.1,0,0.1,0,0.2,0C10.9,3.8,11.9,5.3,11.9,7L11.9,7z M14,7
			c0,2.5-1.5,4.8-3.8,5.8c-0.1,0-0.1,0-0.2,0c-0.3,0-0.5-0.2-0.5-0.5c0-0.2,0.1-0.4,0.3-0.5c0.1-0.1,0.2-0.1,0.4-0.2
			c0.2-0.1,0.5-0.3,0.7-0.4c1.4-1,2.2-2.6,2.2-4.3s-0.8-3.3-2.2-4.3c-0.2-0.2-0.4-0.3-0.7-0.4C10,2.3,9.9,2.2,9.7,2.2
			C9.6,2,9.4,1.9,9.4,1.7c0-0.3,0.2-0.5,0.5-0.5c0.1,0,0.1,0,0.2,0C12.5,2.2,14,4.5,14,7L14,7z"/>
		<path class="st1" d="M6.5,3.2v7.5c0,0.2-0.2,0.4-0.4,0.4c-0.1,0-0.2,0-0.3-0.1l-3-2.5H1c-0.2,0-0.4-0.2-0.4-0.4V5.9
			c0-0.2,0.2-0.4,0.4-0.4h1.8l3-2.6c0.1-0.1,0.2-0.1,0.3-0.1C6.3,2.8,6.5,3,6.5,3.2L6.5,3.2z"/>
	</svg>

	<svg id="icon-eject" viewBox="0 0 14 14">
		<style type="text/css">
			.st0{fill:#949494;}
		</style>
		<path class="st0" d="M11.4,12.1H2.6c-0.3,0-0.6-0.3-0.6-0.6V8.6C2,8.3,2.3,8,2.6,8h8.8C11.7,8,12,8.3,12,8.6v2.9
			C12,11.8,11.7,12.1,11.4,12.1z M3.2,10.9h7.6V9.2H3.2V10.9z"/>
		<path class="st0" d="M11.4,7.2H2.6C2.4,7.2,2.1,7.1,2,6.8C1.9,6.6,2,6.3,2.2,6.2l4.4-4.1c0.2-0.2,0.6-0.2,0.8,0l4.4,4.1
			C12,6.3,12.1,6.6,12,6.8C11.9,7.1,11.6,7.2,11.4,7.2z M4.2,6h5.7L7,3.3L4.2,6z"/>
	</svg>

	<svg id="icon-backspace" viewBox="0 0 14 14">
		<style type="text/css">
			.st0{fill:#949494;}
		</style>
		<path class="st0" d="M13.3,2H4.7C4.5,2,4.3,2.1,4.1,2.2L0.2,6.5C0,6.8,0,7.1,0.2,7.4l3.9,4.4C4.3,12,4.5,12,4.7,12h8.7c0.4,0,0.7-0.3,0.7-0.7
			V2.6C14,2.3,13.7,2,13.3,2z M12.7,10.8H5L1.6,7L5,3.3h7.7V10.8z"/>
		<polygon class="st0" points="6.8,9.7 8.6,7.9 10.4,9.7 11.3,8.8 9.5,7 11.3,5.2 10.4,4.3 8.6,6.1 6.8,4.3 5.9,5.2 7.7,7 5.9,8.8 	"/>
	</svg>

	<svg id="icon-tab" viewBox="0 0 18 14">
		<style type="text/css">
			.st0{fill:none;stroke:#888;stroke-linejoin:round;}
		</style>
		<polyline class="st0" points="1,6.5 13.5,6.5 9.5,9.5 "/>
		<line class="st0" x1="13.5" y1="6.5" x2="9.5" y2="3.5"/>
		<line class="st0" x1="15.5" y1="2" x2="15.5" y2="11"/>
	</svg>

	<svg id="icon-return" viewBox="0 0 18 14">
		<style type="text/css">
			.st0{fill:none;stroke:#888;stroke-linejoin:round;}
		</style>
		<polyline class="st0" points="13.9,0.5 16.5,0.5 16.5,8.5 0.5,8.5 5.7,4.6 "/>
		<line class="st0" x1="0.5" y1="8.5" x2="5.7" y2="12.4"/>
	</svg>

	<svg id="icon-caps-lock" viewBox="0 0 14 14">
		<style type="text/css">
			.st0{fill:#949494;}
		</style>
		<path class="st0" d="M10.3,9.8H3.6c-0.3,0-0.5-0.3-0.5-0.5V7.8H0.5C0.3,7.8,0.1,7.7,0,7.5s0-0.4,0.1-0.6l6.5-6.7
			c0.2-0.2,0.5-0.2,0.7,0l6.5,6.7C14,7,14,7.2,14,7.5c-0.1,0.2-0.3,0.4-0.5,0.4h-2.6v1.5C10.9,9.5,10.6,9.8,10.3,9.8z M4.1,8.7h5.7
			V7.2c0-0.3,0.3-0.5,0.5-0.5h1.9L7,1.3L1.7,6.8h1.9c0.3,0,0.5,0.3,0.5,0.5V8.7z"/>
		<path class="st0" d="M10.4,14H3.6c-0.3,0-0.5-0.2-0.5-0.5v-2.4c0-0.3,0.2-0.5,0.5-0.5h6.7c0.3,0,0.5,0.2,0.5,0.5v2.4
			C10.9,13.8,10.6,14,10.4,14z M4.1,13h5.7v-1.4H4.1V13z"/>
	</svg>

	<svg id="icon-shift" viewBox="0 0 14 14">
		<style type="text/css">
			.st0{fill:#949494;}
		</style>
		<path class="st0" d="M10.3,13H3.6c-0.3,0-0.5-0.3-0.5-0.5V9H0.5C0.3,9,0.1,8.8,0,8.6s0-0.4,0.1-0.6l6.5-6.7c0.2-0.2,0.5-0.2,0.7,0l6.5,6.7
	C14,8.2,14,8.4,14,8.6C13.9,8.8,13.7,9,13.5,9h-2.6v3.5C10.9,12.7,10.6,13,10.3,13z M4.1,11.9h5.7V8.4c0-0.3,0.3-0.5,0.5-0.5h1.9
	L7,2.5L1.7,7.9h1.9c0.3,0,0.5,0.3,0.5,0.5V11.9z"/>
	</svg>

	<svg id="icon-command" viewBox="0 0 14 14">
		<style type="text/css">
			.st0{fill:#777;}
		</style>
		<path class="st0" d="M12.2,9c-0.4-0.4-1-0.6-1.6-0.6H9.5V5.6h1.1c0.6,0,1.1-0.2,1.6-0.7c0.9-0.9,0.9-2.3,0-3.2c-0.4-0.4-1-0.6-1.6-0.6
			C10,1.1,9.5,1.3,9,1.8c-0.4,0.4-0.6,1-0.6,1.7v1H5.5v-1c0-0.7-0.2-1.3-0.6-1.7c-0.5-0.5-1-0.7-1.6-0.7S2.1,1.3,1.7,1.8
			C1.3,2.2,1,2.7,1,3.4S1.3,4.5,1.7,5c0.4,0.4,1,0.6,1.6,0.6h1.1v2.8H3.3c-0.6,0-1.1,0.2-1.6,0.7C1.3,9.5,1,10.1,1,10.7
			c0,0.6,0.2,1.1,0.7,1.6c0.4,0.4,1,0.6,1.6,0.6s1.1-0.2,1.6-0.7c0.4-0.4,0.6-1,0.6-1.7v-1h2.8v1c0,0.7,0.2,1.3,0.7,1.7
			c0.4,0.4,1,0.7,1.6,0.7c0.6,0,1.1-0.2,1.6-0.7c0.4-0.4,0.7-1,0.7-1.6C12.9,10.1,12.7,9.5,12.2,9L12.2,9z M9.9,2.6
			c0.2-0.2,0.5-0.3,0.7-0.3s0.6,0.1,0.7,0.3c0.4,0.4,0.4,1.1,0,1.5c-0.2,0.2-0.5,0.3-0.7,0.3H9.5v-1C9.6,3.1,9.6,2.8,9.9,2.6L9.9,2.6z
			 M3.3,4.4C3,4.4,2.8,4.3,2.6,4C2.4,3.9,2.2,3.6,2.2,3.4s0.1-0.6,0.3-0.7C2.8,2.4,3,2.3,3.3,2.3s0.6,0.1,0.7,0.3
			c0.2,0.2,0.3,0.5,0.3,0.9v1L3.3,4.4z M4.1,11.4c-0.2,0.2-0.5,0.3-0.7,0.3c-0.3,0-0.6-0.1-0.7-0.3c-0.2-0.2-0.3-0.5-0.3-0.7
			s0.1-0.6,0.3-0.7C2.8,9.7,3,9.6,3.3,9.6h1.1v1C4.4,10.9,4.3,11.2,4.1,11.4L4.1,11.4z M8.4,8.4H5.5V5.6h2.8V8.4z M11.4,11.4
			c-0.2,0.2-0.5,0.3-0.7,0.3s-0.6-0.1-0.7-0.3c-0.2-0.2-0.3-0.5-0.3-0.9v-1h1.1c0.3,0,0.6,0.1,0.7,0.3c0.2,0.2,0.3,0.5,0.3,0.7
			C11.7,10.9,11.6,11.2,11.4,11.4L11.4,11.4z"/>
	</svg>

	<svg id="icon-option" viewBox="0 0 14 14">
		<style type="text/css">
			.st0{fill:#777;}
		</style>
		<path class="st0" d="M9.1,9.7L5.9,3.5C5.6,2.8,4.9,2.3,4.1,2.3H1V4h3c0.2,0,0.3,0.1,0.4,0.2l3.1,6.3c0.3,0.7,1.1,1.2,1.9,1.2H13V10H9.5
		C9.3,10,9.1,9.9,9.1,9.7z"/>
	<rect class="st0" x="7.6" y="2.3" width="5.3" height="1.7"/>
	</svg>

	<svg id="icon-control" viewBox="0 0 14 14">
		<style type="text/css">
			.st0{fill:#777;}
		</style>
		<path class="st0" d="M11.5,9L7,4.6L2.5,9L1.2,7.9l5.1-5.1c0.3-0.3,0.9-0.3,1.3,0l5.1,5.1L11.5,9z"/>
	</svg>

	<svg id="icon-degree" viewBox="0 0 14 14">
		<style type="text/css">
			.st0{fill:none;stroke:#777;stroke-width:1.25;stroke-linejoin:round;}
		</style>
		<circle class="st0" cx="7" cy="7" r="2.75"/>
	</svg>

	<svg id="icon-snake-s" viewBox="0 0 14 14">
		<style type="text/css">
			.st0{fill:#777;}
		</style>
		<path class="st0" d="M9.2,2.4C8.8,2.2,8.1,1.9,7.3,1.9c-0.9,0-1.7,0.5-1.7,1.2c0,0.8,0.8,1.1,2,1.5c1.5,0.5,2.6,1.1,2.6,2.5
			c0,0.8-0.4,1.5-1,1.9c0.3,0.2,0.6,0.8,0.6,1.4c0,1.7-1.6,2.4-3.1,2.4c-1,0-1.9-0.2-2.5-0.7l0.4-0.9c0.4,0.3,1.2,0.7,2.1,0.7
			c1,0,1.8-0.5,1.8-1.3c0-0.8-0.5-1.2-2-1.7C4.9,8.5,3.8,7.9,3.8,6.5c0-0.6,0.3-1.3,1.2-1.9C4.6,4.4,4.4,3.8,4.3,3.3
			c0-1.4,1.3-2.3,3-2.3C8.2,1,9,1.2,9.5,1.5L9.2,2.4z M6.6,7.9c0.8,0.3,1.5,0.5,1.8,0.8c0.4-0.3,0.6-0.7,0.6-1.2
			c0-0.6-0.4-1.1-1.4-1.5C7,5.7,6.2,5.4,5.6,5.1C5.1,5.5,4.9,5.9,4.9,6.3C4.9,6.9,5.3,7.4,6.6,7.9z"/>
	</svg>

	<svg id="icon-less-than" viewBox="0 0 14 14">
		<style type="text/css">
			.st0{fill:none;stroke:#777;stroke-width:1.5;stroke-linejoin:round;}
		</style>
		<polyline class="st0" points="10,2 3,7 10,12 "/>
	</svg>

	<svg id="icon-greater-than" viewBox="0 0 14 14">
		<style type="text/css">
			.st0{fill:none;stroke:#777;stroke-width:1.5;stroke-linejoin:round;}
		</style>
		<polyline class="st0" points="3,12 10,7 3,2  "/>
	</svg>

	<svg id="icon-question-mark" viewBox="0 0 14 14">
		<style type="text/css">
			.st0{fill:none;stroke:#777;stroke-width:1;stroke-linejoin:round;}
		</style>
		<rect x="1.5" y="1.5" class="st0" width="11" height="11"/>
	</svg>

	<svg id="icon-plus" viewBox="0 0 14 14">
		<style type="text/css">
			.st0{fill:none;stroke:#777;stroke-width:1;stroke-linejoin:round;}
		</style>
		<rect x="1.5" y="1.5" class="st0" width="11" height="11"/>
	</svg>

	<svg id="icon-single-quote-open" viewBox="0 0 14 14">
		<style type="text/css">
			.st0{fill:none;stroke:#777;stroke-width:1;stroke-linejoin:round;}
		</style>
		<rect x="1.5" y="1.5" class="st0" width="11" height="11"/>
	</svg>

	<svg id="icon-single-quote-close" viewBox="0 0 14 14">
		<style type="text/css">
			.st0{fill:none;stroke:#777;stroke-width:1;stroke-linejoin:round;}
		</style>
		<rect x="1.5" y="1.5" class="st0" width="11" height="11"/>
	</svg>

	<svg id="icon-chevron-up" viewBox="0 0 14 14">
		<style type="text/css">
			.st0{fill:none;stroke:#777;stroke-width:1;stroke-linejoin:round;}
		</style>
		<rect x="1.5" y="1.5" class="st0" width="11" height="11"/>
	</svg>

	<svg id="icon-dot-dot" viewBox="0 0 14 14">
		<style type="text/css">
			.st0{fill:none;stroke:#777;stroke-width:1;stroke-linejoin:round;}
		</style>
		<rect x="1.5" y="1.5" class="st0" width="11" height="11"/>
	</svg>

	<svg id="icon-star" viewBox="0 0 14 14">
		<style type="text/css">
			.st0{fill:none;stroke:#777;stroke-width:1;stroke-linejoin:round;}
		</style>
		<rect x="1.5" y="1.5" class="st0" width="11" height="11"/>
	</svg>

	<svg id="icon-quot-comma" viewBox="0 0 14 14">
		<style type="text/css">
			.st0{fill:none;stroke:#777;stroke-width:1;stroke-linejoin:round;}
		</style>
		<rect x="1.5" y="1.5" class="st0" width="11" height="11"/>
	</svg>
</svg>
